<svg xmlns="http://www.w3.org/2000/svg" version="1.1" xmlns:xlink="http://www.w3.org/1999/xlink" xmlns:svgjs="http://svgjs.dev/svgjs" width="40" height="40"><svg version="1.1" id="SvgjsSvg1001" xmlns="http://www.w3.org/2000/svg" xmlns:xlink="http://www.w3.org/1999/xlink" x="0px" y="0px" viewBox="0 0 40 40" style="enable-background:new 0 0 40 40;" xml:space="preserve">
<style type="text/css">
	.st0{display:none;fill-rule:evenodd;clip-rule:evenodd;fill:#383838;}
	.st1{fill:#383838;}
	.st2{fill:#4481C3;}
	.st3{fill:#FFFFFF;}
</style>
<circle class="st0" cx="20" cy="20" r="17.5"></circle>
<path class="st1" d="M37.5,20c0-9.7-7.9-17.5-17.5-17.5S2.5,10.3,2.5,20S10.3,37.5,20,37.5c0.8,0,1.7-0.1,2.5-0.2l6-27.1h0
	c0.1-0.6,0.8-1,1.4-0.9s1,0.8,0.9,1.4L25,36.8C32.2,34.7,37.5,28,37.5,20z"></path>
<path class="st2" d="M29.9,9.3c-0.6-0.1-1.3,0.3-1.4,0.9h0l-6,27.1c0.9-0.1,1.7-0.3,2.5-0.5l5.8-26.1C30.9,10.1,30.5,9.5,29.9,9.3z"></path>
<path class="st3" d="M23.4,15.6c0.2-1.3-0.1-2.4-0.9-3.2c-0.8-0.8-1.9-1.2-3.5-1.2c-1.1,0-2.1,0.2-3,0.8c-0.9,0.5-1.7,1.2-2.3,2
	c-0.8,1-1.4,2.2-1.9,3.6c-0.3,0.8-0.6,1.9-0.8,3.2c-0.5,2.2-0.5,4,0,5.4c0.6,1.8,2,2.7,4.2,2.7c2,0,3.6-0.6,4.8-1.8s2-2.6,2.3-4.2
	c0.3-1.6,0.1-2.9-0.6-3.9c-0.7-1-1.9-1.5-3.4-1.5c-0.7,0-1.3,0.1-2,0.3c-0.6,0.2-1.2,0.6-1.7,1.1c0.4-1.3,0.8-2.3,1.1-3
	c0.7-1.2,1.6-1.8,2.7-1.8c0.7,0,1.2,0.3,1.5,0.8c0.1,0.3,0.2,0.6,0.1,0.9H23.4z M15.3,20.5c0.5-0.3,1-0.5,1.6-0.5
	c0.7,0,1.2,0.3,1.6,0.8c0.4,0.5,0.5,1.3,0.2,2.3c-0.2,0.9-0.6,1.6-1.1,2.2c-0.5,0.6-1.2,0.8-1.9,0.8c-0.8,0-1.3-0.3-1.7-0.9
	c-0.4-0.6-0.5-1.3-0.3-2.2C14,21.8,14.5,21,15.3,20.5z"></path>
</svg><style>@media (prefers-color-scheme: light) { :root { filter: none; } }
@media (prefers-color-scheme: dark) { :root { filter: none; } }
</style></svg>